/* XPM */
static char *_20d6234ab164b3ef885d9a439f7dabd[] = {
/* columns rows colors chars-per-pixel */
"64 64 256 2 ",
"   c #0A0802",
".  c #110D04",
"X  c #1A1404",
"o  c #1A1507",
"O  c #241C04",
"+  c #261E06",
"@  c #2C2206",
"#  c #2A220A",
"$  c #322606",
"%  c #352907",
"&  c #3B2D07",
"*  c #362A0A",
"=  c #3A2D0A",
"-  c #31270A",
";  c #3E300B",
":  c #3F3007",
">  c #372D12",
",  c #3D3112",
"<  c #44340A",
"1  c #48370A",
"2  c #4B3A0B",
"3  c #493909",
"4  c #513E0B",
"5  c #513D07",
"6  c #423613",
"7  c #4C3D14",
"8  c #473A17",
"9  c #503F11",
"0  c #55410C",
"q  c #5A450C",
"w  c #5E480D",
"e  c #554007",
"r  c #4F411B",
"t  c #534213",
"y  c #594613",
"u  c #5D4913",
"i  c #53441B",
"p  c #5D4B1A",
"a  c #634C0D",
"s  c #684F0B",
"d  c #6C530E",
"f  c #67500F",
"g  c #71560E",
"h  c #755A0F",
"j  c #7A5D0F",
"k  c #634D12",
"l  c #604E1D",
"z  c #665013",
"x  c #6B5413",
"c  c #6B551A",
"v  c #6C571C",
"b  c #745A12",
"n  c #7A5E11",
"m  c #745B18",
"M  c #7D6111",
"N  c #7C621A",
"B  c #77601F",
"V  c #7F610F",
"C  c #594A22",
"Z  c #6A592A",
"A  c #685624",
"S  c #725D23",
"D  c #7E6523",
"F  c #7F6825",
"G  c #7A6A3D",
"H  c #85650F",
"J  c #836512",
"K  c #8C6C12",
"L  c #82661A",
"P  c #85691D",
"I  c #8B6E1B",
"U  c #876813",
"Y  c #906F12",
"T  c #947213",
"R  c #9A7614",
"E  c #9D7914",
"W  c #94731B",
"Q  c #9B791C",
"!  c #99771C",
"~  c #8D701E",
"^  c #A37D15",
"/  c #A27E1C",
"(  c #846B23",
")  c #8D7124",
"_  c #8B722D",
"`  c #947522",
"'  c #9D7C23",
"]  c #977929",
"[  c #957B34",
"{  c #846E33",
"}  c #867850",
"|  c #A78015",
" . c #AB8315",
".. c #A6811C",
"X. c #AB851A",
"o. c #AE881C",
"O. c #B08717",
"+. c #B48A16",
"@. c #B98E16",
"#. c #B38B1B",
"$. c #BA8F19",
"%. c #BD9117",
"&. c #BC911A",
"*. c #99803C",
"=. c #A58224",
"-. c #A98523",
";. c #A3832A",
":. c #AC8929",
">. c #B58E23",
",. c #B28D29",
"<. c #BC9323",
"1. c #BB942B",
"2. c #B5912C",
"3. c #AA8B36",
"4. c #BD9935",
"5. c #B3933B",
"6. c #BA9737",
"7. c #B09038",
"8. c #C3951A",
"9. c #C6981A",
"0. c #CB9C1A",
"q. c #C49616",
"w. c #D09F1A",
"e. c #D3A21B",
"r. c #D9A61B",
"t. c #DDAA1C",
"y. c #E2AE1D",
"u. c #E6B11E",
"i. c #CA9E23",
"p. c #C39A2B",
"a. c #C49924",
"s. c #C59E33",
"d. c #C29E3B",
"f. c #CDA22B",
"g. c #CFA124",
"h. c #D6A622",
"j. c #D7A92B",
"k. c #D9AA28",
"l. c #CBA333",
"z. c #C7A23C",
"x. c #CAA43B",
"c. c #C7A136",
"v. c #D3A833",
"b. c #D3AB3C",
"n. c #D5AA34",
"m. c #DEB138",
"M. c #E2AF22",
"N. c #E5B123",
"B. c #E9B525",
"V. c #E4B32C",
"C. c #E9B62C",
"Z. c #EDB92B",
"A. c #E6B634",
"S. c #E7B836",
"D. c #EAB934",
"F. c #E2B63B",
"G. c #E7B93B",
"H. c #E9BB3C",
"J. c #E8B731",
"K. c #EFC03E",
"L. c #B99A46",
"P. c #AB934F",
"I. c #BDA259",
"U. c #BEA04D",
"Y. c #9C8F69",
"T. c #9D9272",
"R. c #A99869",
"E. c #AD9D6D",
"W. c #B8A268",
"Q. c #92845F",
"!. c #CAA643",
"~. c #CEAA43",
"^. c #C5A44B",
"/. c #CCAA4C",
"(. c #C8A546",
"). c #D3AD44",
"_. c #D2AE4B",
"`. c #D6B14C",
"'. c #DAB44A",
"]. c #CBAB53",
"[. c #CCAD5A",
"{. c #C5A755",
"}. c #D4B253",
"|. c #D9B554",
" X c #D3B35B",
".X c #DBB95A",
"XX c #CFB05A",
"oX c #E6BA42",
"OX c #E9BD44",
"+X c #E3BB4C",
"@X c #E9BF4A",
"#X c #E2B741",
"$X c #E2BC54",
"%X c #E1BE5C",
"&X c #CDB164",
"*X c #CCB26B",
"=X c #D3B563",
"-X c #DCBC63",
";X c #DCBE6B",
":X c #D4B86A",
">X c #CCB575",
",X c #CCB67A",
"<X c #D3BA75",
"1X c #DABF75",
"2X c #D3BC7B",
"3X c #D3BA73",
"4X c #CCAF61",
"5X c #E0BE62",
"6X c #ECC046",
"7X c #EBC14D",
"8X c #EBC253",
"9X c #E6C15C",
"0X c #EBC55B",
"qX c #EFC85C",
"wX c #F2CA5C",
"eX c #F1C449",
"rX c #DEC173",
"tX c #DCC27B",
"yX c #DEC06E",
"uX c #E5C364",
"iX c #ECC763",
"pX c #EDC964",
"aX c #E3C36D",
"sX c #EDCB6C",
"dX c #E9C76B",
"fX c #F1CD6A",
"gX c #F1CB64",
"hX c #EDCD73",
"jX c #EDCE7B",
"kX c #E3C677",
"lX c #F1CE72",
"zX c #EFD17D",
"xX c #F2D175",
"cX c #F2D27C",
"vX c #F4D06D",
"bX c #D3BD82",
"nX c #CAB889",
"mX c #DBC586",
"MX c #E5CB83",
"NX c #E4CC8A",
"BX c #E6CC84",
"VX c #EED183",
"CX c #EDD38A",
"ZX c #F1D484",
"AX c #F1D68B",
"SX c #F3D88D",
"DX c #ECD593",
"FX c #EFD99F",
"GX c #F3DA93",
"HX c #F4DD9C",
"JX c #F0D792",
"KX c #E0CB93",
"LX c #F9E19E",
"PX c #F4DEA1",
"IX c #F8E2A6",
"UX c None",
/* pixels */
"UXUXUXUXUXUXUXUXUXUXUXUXUXUXUXUXUXUXUXUXUXUXUXUXUXUXUXUXUXUXUXUXUXUXUXUXUXUXUXUXUXUXUXUXUXUXUXUXUXUXUXUXUXUXUXUXUXUXUXUXUXUXUXUX",
"UXUXUXUXUXUXUXUXUXUXUXUXUXUXUXUXUXUXUXUXUXUXUXUXUXUX} E.W.>X*X2X*X<X&X<XI.E.} UXUXUXUXUXUXUXUXUXUXUXUXUXUXUXUXUXUXUXUXUXUXUXUXUX",
"UXUXUXUXUXUXUXUXUXUXUXUXUXUXUXUXUXUXUXUXUXUXUXE.bX1X<X*X*X3X1XtXtX1X1X:X&X{. X=X=XI.G UXUXUXUXUXUXUXUXUXUXUXUXUXUXUXUXUXUXUXUXUX",
"UXUXUXUXUXUXUXUXUXUXUXUXUXUXUXUXUXUXUXUXT.<XmX:X2XNXDXHXLXHXHXGXGXSXAXZXZXVXhXuX X]. X].P.UXUXUXUXUXUXUXUXUXUXUXUXUXUXUXUXUXUXUX",
"UXUXUXUXUXUXUXUXUXUXUXUXUXUXUXUXUXUXE.tX<X2XNXPXPXHXHXHXGXJXAXAXVXjXZXzXzXcXcXlXxXsX9X}./.].U.UXUXUXUXUXUXUXUXUXUXUXUXUXUXUXUXUX",
"UXUXUXUXUXUXUXUXUXUXUXUXUXUXUXUXQ.mX:XbXFXIXIXHXHXHXCXGXJXAX X|.VX[.jXjX=X-X5XuXpXdXpXpX0X`.c.`.5.UXUXUXUXUXUXUXUXUXUXUXUXUXUXUX",
"UXUXUXUXUXUXUXUXUXUXUXUXUXUXUXnX;X,XFXIXPXIXDXNXGXAX(.kXSXAX;Xx.|.;XjXhXdX-XU.iXpXpX$X0X8X8X7Xx.z.).UXUXUXUXUXUXUXUXUXUXUXUXUXUX",
"UXUXUXUXUXUXUXUXUXUXUXUXUXUXMX*XKXIXPXFXDXkX*X3XHXBX X~.AXZXyXkXd./.xXxX-XU.pXiXpX^.~.x.@X7X7X7X#X4.b.' UXUXUXUXUXUXUXUXUXUXUXUX",
"UXUXUXUXUXUXUXUXUXUXUXUXY.rX,XPXIXPXPXGX<XaX}.HXGXkXtX`.].ZX4XaXaX].lX X7.5X.XpX'.c.wXb.l.7X@XoXH.H.f.s.,.UXUXUXUXUXUXUXUXUXUXUX",
"UXUXUXUXUXUXUXUXUXUXUXR.1XbXIXPXPXNXNXHXJXGX`.tXGX:XrXkXrXzXjXhXlXlXpXdX9X.X|.wXl.c.wX!.c.@XH.H.H.S.J.j.i.,.UXUXUXUXUXUXUXUXUXUX",
"UXUXUXUXUXUXUXUXUXUXY.mXmXIXPXPXPX;X_.DXHXGX-X[.AXVXZXzXcXxXhXlXhXpXpXpXpX0X0X8X+Xc.(.s.OXH.S.S.J.A.V.B.h.i.o.UXUXUXUXUXUXUXUXUX",
"UXUXUXUXUXUXUXUXUXT.rX2XIXPXFXDXHXHX}.-XJXAXBXZXZXzXZXZXZXZXZXcXjXhXhXhXfX0X8X8X7X@XoXOXoXS.S.H.d.<.e.N.u.e.a...UXUXUXUXUXUXUXUX",
"UXUXUXUXUXUXUXUXUX1XbXIXFXPX:X`.GXHXVX^.BXAXZXZXVXAXAXtXkXxXhX.X6..XpX0X/..X0X8X@X@XoXG.S.S.J.s.$.B.&.w.y.t.0.&.L UXUXUXUXUXUXUX",
"UXUXUXUXUXUXUXUXmX>XIXHXHXLXMX{.'.BXJXCXAXZXZXGXJXZXaX6.$XlXfX.X@XfXwX).1.@X@X@X7X@XG.S.S.A.C.X.r.B.0.e.r.e.e.8.&.7 UXUXUXUXUXUX",
"UXUXUXUXUXUXUXnX&XHXHXHX*X].uXrXXX:XSXAXZXSXNX:XhXhXsXpXhX|.]./.^.^.~.~.+XqX6X6Xp.p.S.S.V.B.N.8.+.r.t.t.h.w.w.9.#.>.UXUXUXUXUXUX",
"UXUXUXUXUXUX} :XNXIXHXHXBX4X&X{.BXAXVXZXGXSX].`.xXsX].U.L.^./.`.`.).~.z.4.2.s.m.f.#XS.V.V.M.M.N.r.e.k.6.Q ^ %.9.%.X.P UXUXUXUXUX",
"UXUXUXUXUXUXNX>XIXHXJXDXHXVX=XBXZXZXAXGXVXhXhXxX{.L.].%XgXwXqX8X8X7X7X7XOXG.v.1.a.F.C.N.N.r.r.t.r.e.a.! 8.%.Q %.%.o.X.; UXUXUXUX",
"UXUXUXUXUXE.&XDXHXGX3XkXGXSXkXVXZXZXGXjXhXcX-XL.].gXgXiX0X0X8X@X7X@X@XoXH.S.H.S.f.#.i.B.#.$.e.w.e.e.+.| e.1.Y %.+.O./ I UXUXUXUX",
"UXUXUXUXUXtX2XPXHX1XdX;XjX:XAXZXZXGX^.|.cX[.L.uXfXiX0X0X8X0X$X@X@XOXoXG.H.S.V.C.C.N.8.$.9.F.r.9.8.w.q.| ;.I  .+.O.| ^ Q , UXUXUX",
"UXUXUXUXY.:XDXHXGXtX/.`.rXrXZXzXGXkX}.cX{.U.pXpXuX0X0X0X@X@X@X@XoXH.G.S.A.V.m.g.u.N.u.0.$.h.w.w.+.%.9.%. .+.O.>./ ^ ^ ^ b UXUXUX",
"UXUXUXUX*X>XHXGXJXGXAX:X{.ZXjXAXZXhXcX].U.fXpX0X0X8X8X8X@X@XOXOXoXH.H.J.j.d.i.'.d.t.h.i.8.@.0.9.9.^ %.@.+.#.2.] b E R T W UXUXUX",
"UXUXUXUX1XMXGXJXZXZXSXZXjXzXzXAXsXfX-XL.gXiX0X0X8X8X@X@X@X#Xm.p.f.j.J.C.).' m.LXbX>.>.-.9.%.%.%.E ^ | +.X.W L H R R T Y T 1 UXUX",
"UXUXUXP.=XGXSXBX{.].hX:XzXxXAX{.(.pXL.5XiX0X0X8X8X7X@X@X@XF.<.#.8.g.F.8X%X XJX2X1.w.8.a.9.9.+.^ o.p.Y | | T E ^ R T Y Y I N UXUX",
"UXUXUX,X3XGXAX-X5X].[.;XcXjXVX`.lX]./.gX0X0X8X+X'.oX@XoXH.F.v.p.E <.oX@X0XhXL.$.9.q.w.9.8.8.@. .a.>.R Y | ^ E W W ) j U H J UXUX",
"UXUXUX1XtXSXZX;X].!./.hXhXzXhXfXdX5.0X0X8X8X'.(.!.~.#XH.S.F.7.:.v.oXH.OX0XdX{.d.c.}.a.8.%.%.@.O. .| | J E E L U ] v H H j I < UX",
"UXUX} 3XBXZXZXZXZXkX XhXhXzXfXfX/./.qX8X+X'.6.;.3.3.n.H.A.m.p.f.p.8.j.OX0XfXZXSXHXIX5.%.%.+.o. .| ^ R H K T K Q D n L j h H 7 UX",
"UXUXP.*XZXZXzXzXjXhXxXsXhXdX].0X6.$X8X8Xb.-.! V J ;.b.m.A.B.B.u.e.v.F.S.@X0XhXjXBXkX-.@.+.+.| | | K K Y j Y K ( x P c h b V x UX",
"UXUXW.&XZXzXzXaXsXhXsXpXxX].c.$XL.8X8X7Xx.` n j H ~ 4.k.B.N.M.y.h.v.u.D.v.L.6.L.;.-.+.+. .| | ^ ^ R 2.Q g K H n n j h h g j x UX",
"UXUX*X=XZXcX-XU.uXsXpXpXhX%XwX|.d.8X7X@XOXv.;.j h ! p.N.B.M.M.y.e.f.y.B.v.;.O. .@.+.O. .| ^ ^ R R ^ K K g J V V b n h g d g b UX",
"UXUX4X&XcXhXaX-XsXpXpX0XpXwXwX!.~.eX@XH.H.eX7.J j.V.N.N.f.<.>.9.e.&.e.y.N.V.j.$.+.o.|  .-.E R R T ^ K K a n n h N P d d a d n UX",
"UXUX=X XxXhXfXsXdXiX0X0XpX`.).x.b.6XoXH.@X[ h k.C.N.k.s./ E | -.2.%.o.r.y.M.C.k.#.^ ^ =.` ' Y Y K ^ j h a b j h b q 0 a a k n o ",
"UXUX[.=XlXfXuX9XiX0X0X8XuX1.#Xd.b.OXH.H.2.a T Z.u.k.7.T Y R ^ | X.-.| ^ q.y.y.N.t.^ E / :.] I K K E d ! f d h g d a a a q w n o ",
"UXUX=XXXvX X^.(.9X8X8X7X0XoXwXd.n.H.S.S.I a P M.N.1.I H Y T E |  ...o.^ U O.w.r.t.@.Y >.h.` J U H E J ;.a f g d a a w q q q b . ",
"UXUX/.XXfX/.0X|.$X8X8X7X8X6XH.l.l.S.J.V.n f b :.p.W V H H K H R ^  ./ =.| U R 9.0.9.i.f.+.H J H J ! h g q f d x a k k 0 5 q m o ",
"UXUX[.].gX0X-X_.+X7X@XOX@XoXK.n.p.D.C.B.J k d n M h n j Q K -.~ E ^ | / ' ^ ' <.%.%.E H b j J j J W w d 5 a a x f q k q 2 q g UX",
"UXUXL./.gX'.5.5.`.7X@XoX@XF.p.f.<.Z.k.a.| g d d g g d Q 3.M b Y H R ^ ^ Q =.>.+.+.^ b H U j b h I N d J 2 a a k u y k 9 1 q x UX",
"UXUXP.~.8X+X(.~.#X6XoXS.H.l.a.G.&.N.i.W U ` a h g M | $.+.K g Y ^ H R R ^ ^ | ^  .K n H J n j g ` m ~ B 1 a k k u 0 0 1 < a 4 UX",
"UXUX{ ~.@X@X7X}.z.OXG.S.A.A.S.S.9.g.g.=.k w +.e.8.9.9.&.%.@. . . .E j Y R R R ^ T g J j j h g b ] f a 5 4 q q 4 9 0 9 1 & m 7 UX",
"UXUXUX).'.7Xz.4.v.H.G.S.V.B.N.N.t.%.t.e.$.Y e.0.9.&.%.@.+.O. .| ^ ^ T j j U Y K a L n h h g s P P w a 1 q 0 0 2 3 1 < < < m O UX",
"UXUXUX(.~.6XoX6Xb.n.A.V.V.M.M.y.r.+.9.r.e.$.q.8.%.$.$.+.O.| | ^ E E T Y H g U H ~ [ ( N g d d [ q q 5 < 4 4 4 1 3 < < & 2 c o UX",
"UXUXUX5.c.OXF.6.7.l.C.N.N.M.t.8.| i.+.w.q.q.9.%.$.@.O. . .| | R R T Y K K U h J Y n ( x x w _ N a ] 1 2 4 4 & 1 y 1 : % y t UXUX",
"UXUXUXv b.m.S.V.f.f.M.N.y.y.r.8.n.j.8.+.9.9.%.@.+.O. .| | E E T Y Y K U J j J P a c x a a B [ e a y & 4 3 1 7 t 7 , % $ c - UXUX",
"UXUXUXUXs.l.J.V.Z.s.<.u.t.r.r.8.e.0.9.+.+.%.@.o.O.| | | E R T Y I U H H J j J z f f a w c [ q q 0 & 3 1 7 l i 6 $ $ % < c . UXUX",
"UXUXUXUX;.f.V.B.4.<.8.t.r.r.e.9.+.9.8.8.+.+.+.O.| | E E R T Y K H J J V n b d a g f w f [ k 5 q : : 1 1 8 < 2 6 $ $ @ p 6 UXUXUX",
"UXUXUXUXUXl.g.N.r.N.p.q.e.w.w.9.$.X.8.E R  . .| | E E R Y Y K U U H j j h g g d a q S [ c 5 ] t % 3 1 1 & & & % @ @ * v o UXUXUX",
"UXUXUXUXUXo.8.u.u.1.<.<.9.0.9.8.8.| E E p.X.| | E R T Y K K H J V j j h g d f q a _ [ a 4 q 9 % 1 < i 7 % > % % - + p 8 UXUXUXUX",
"UXUXUXUXUXUXf.w.t.%.p.;.8.q.8.%.@.@.E R >.^ ^ ^ ^ E T U U H J n j h h g s a f D [ S 3 5 4 < $ 1 < t i r 7 * @ @ @ > S O UXUXUXUX",
"UXUXUXUXUXUXT <.w.e.&.8.9.8.%.$.+.O. .T H E E j U R ^ | R K M n b b b m ( _ [ ( y q m 5 & * 1 : < r r , ; C , @ + v , UXUXUXUXUX",
"UXUXUXUXUXUXUX>.%.w.9.9.2.=.^ +.O. .| ^ T n V Y 6.I H H V I ! ' ` ` ` ) D k q 5 5 c v $ = 1 : < = % , 7 6 , - O r i . UXUXUXUXUX",
"UXUXUXUXUXUXUXUX1.$.9.8.Y #.....| ^ ^ E E T n b N H H g b U h a q s a w 5 N b 5 3 % $ < 1 1 & 7 % % - , r # O > Z o UXUXUXUXUXUX",
"UXUXUXUXUXUXUXUXg #.#.%.^ ^ >.) R E E R T Y Y H f a f s ! ) g a I ) q q q B 7 & & 1 1 < & = > 2 * - @ @ @ O # Z @ UXUXUXUXUXUXUX",
"UXUXUXUXUXUXUXUXUXP +. .+.X.I ! ! ' Y Y K K H H J j d a 0 4 e 4 u 9 1 < : & < 3 1 1 < < 9 < 1 i r @ @ @ + O Z > UXUXUXUXUXUXUXUX",
"UXUXUXUXUXUXUXUXUXUXL o.^ ^ T T ' _ L K U H H j j h h g g a w q 0 0 4 4 4 2 2 < 1 < & & = 6 7 + @ + + O O Z ,   UXUXUXUXUXUXUXUX",
"UXUXUXUXUXUXUXUXUXUXUXm ..E ^ R P M V ) N V j j h g b d a k a q q 0 0 5 3 1 y 7 8 + % = % 6 , O + + O + Z ,   UXUXUXUXUXUXUXUXUX",
"UXUXUXUXUXUXUXUXUXUXUXUXm Q T T Y j L D m M N g h d d a a a q q 0 4 2 3 1 1 * 7 7 ; > = - @ @ + + X > Z ,   UXUXUXUXUXUXUXUXUXUX",
"UXUXUXUXUXUXUXUXUXUXUXUXUXy Y Y U U J b a P c d z a a a k q q 4 4 3 1 1 < < > r 7 6 % $ @ @ + O O r Z # UXUXUXUXUXUXUXUXUXUXUXUX",
"UXUXUXUXUXUXUXUXUXUXUXUXUXUX- L K J n b h v k c w 9 f v 0 0 t 4 3 1 p y < & & > 8 6 - @ @ + X > A i o UXUXUXUXUXUXUXUXUXUXUXUXUX",
"UXUXUXUXUXUXUXUXUXUXUXUXUXUXUXUXl J J n g d d z u 3 u 4 0 3 < 2 < < 4 % % * & $ * - @ + O @ C Z >   UXUXUXUXUXUXUXUXUXUXUXUXUXUX",
"UXUXUXUXUXUXUXUXUXUXUXUXUXUXUXUXUXO z N H h a q q q 0 < 4 4 2 < < < & % & % $ @ @ O + * C A , o UXUXUXUXUXUXUXUXUXUXUXUXUXUXUXUX",
"UXUXUXUXUXUXUXUXUXUXUXUXUXUXUXUXUXUXUX# t b H b f q 2 2 1 1 < < < & & $ @ @ @ @ , 7 Z C , o UXUXUXUXUXUXUXUXUXUXUXUXUXUXUXUXUXUX",
"UXUXUXUXUXUXUXUXUXUXUXUXUXUXUXUXUXUXUXUXUXUX- k d n n x f q 4 5 < 1 < 7 9 p p A l 8 #   UXUXUXUXUXUXUXUXUXUXUXUXUXUXUXUXUXUXUXUX",
"UXUXUXUXUXUXUXUXUXUXUXUXUXUXUXUXUXUXUXUXUXUXUXUX  - = q y b v c c c c A p 6 * X o UXUXUXUXUXUXUXUXUXUXUXUXUXUXUXUXUXUXUXUXUXUXUX",
"UXUXUXUXUXUXUXUXUXUXUXUXUXUXUXUXUXUXUXUXUXUXUXUXUXUXUXUXUXUX. . .   . UXUXUXUXUXUXUXUXUXUXUXUXUXUXUXUXUXUXUXUXUXUXUXUXUXUXUXUXUX",
"UXUXUXUXUXUXUXUXUXUXUXUXUXUXUXUXUXUXUXUXUXUXUXUXUXUXUXUXUXUXUXUXUXUXUXUXUXUXUXUXUXUXUXUXUXUXUXUXUXUXUXUXUXUXUXUXUXUXUXUXUXUXUXUX"
};
