/* XPM */
static char *bacebc133f644df5af4c55ae2ce0f895[] = {
/* columns rows colors chars-per-pixel */
"32 32 205 2 ",
"   c #1E1809",
".  c #241C03",
"X  c #281F05",
"o  c #2C2206",
"O  c #2B230A",
"+  c #332707",
"@  c #352807",
"#  c #3B2D07",
"$  c #31260A",
"%  c #34290B",
"&  c #3A2D0B",
"*  c #3F3007",
"=  c #3E310C",
"-  c #312912",
";  c #3A2F13",
":  c #3B3113",
">  c #43340A",
",  c #48370A",
"<  c #4C3B0B",
"1  c #513E0C",
"2  c #413512",
"3  c #463914",
"4  c #4B3C13",
"5  c #423718",
"6  c #463A18",
"7  c #4A3C18",
"8  c #503F13",
"9  c #55410C",
"0  c #5A450D",
"q  c #5E490D",
"w  c #544210",
"e  c #594610",
"r  c #5D4911",
"t  c #644C0D",
"y  c #6C530E",
"u  c #755A0F",
"i  c #7B5E0F",
"p  c #644E11",
"a  c #675113",
"s  c #6C5412",
"d  c #705610",
"f  c #755B12",
"g  c #7A5E13",
"h  c #745C1A",
"j  c #785E18",
"k  c #7F610F",
"l  c #7D6112",
"z  c #7D631B",
"x  c #735E22",
"c  c #6D5F3B",
"v  c #796222",
"b  c #7E6B37",
"n  c #726544",
"m  c #766842",
"M  c #7C6F4A",
"N  c #836512",
"B  c #866816",
"V  c #8C6B13",
"C  c #836718",
"Z  c #84691E",
"A  c #8B6D19",
"S  c #916F12",
"D  c #957314",
"F  c #9A7614",
"G  c #9D7915",
"H  c #93731C",
"J  c #99771B",
"K  c #9F7D1C",
"L  c #A27C15",
"P  c #A27E1B",
"I  c #957724",
"U  c #9C7C25",
"Y  c #8D7532",
"T  c #907F51",
"R  c #A78015",
"E  c #AB8315",
"W  c #A6821D",
"Q  c #AB8419",
"!  c #B18716",
"~  c #B38917",
"^  c #B98E17",
"/  c #B28A1C",
"(  c #BA8F18",
")  c #BC9017",
"_  c #BD9119",
"`  c #AE8822",
"'  c #AA8828",
"]  c #B78F21",
"[  c #BB9221",
"{  c #BE972C",
"}  c #AC8D39",
"|  c #B99739",
" . c #C09317",
".. c #C3961A",
"X. c #C7991A",
"o. c #CB9C1B",
"O. c #CFA01E",
"+. c #D5A31B",
"@. c #DAA71B",
"#. c #DEAA1B",
"$. c #E2AE1E",
"%. c #C19621",
"&. c #C69A21",
"*. c #CA9D24",
"=. c #C89D2A",
"-. c #C39C33",
";. c #CEA022",
":. c #CDA22C",
">. c #D2A322",
",. c #DAA922",
"<. c #D1A52C",
"1. c #D6A92C",
"2. c #DCAE2D",
"3. c #CAA130",
"4. c #C6A13B",
"5. c #CFA93E",
"6. c #D6AB34",
"7. c #DAAE35",
"8. c #D3AB3B",
"9. c #DDB032",
"0. c #DCB13A",
"q. c #E1AE23",
"w. c #E0AF28",
"e. c #E5B223",
"r. c #E9B626",
"t. c #E6B32B",
"y. c #E9B62A",
"u. c #E4B533",
"i. c #E9B833",
"p. c #E2B63B",
"a. c #E7B93A",
"s. c #E9BB3C",
"d. c #BCA155",
"f. c #AE9B65",
"g. c #BFA767",
"h. c #B6A26B",
"j. c #BEA96C",
"k. c #BFAA72",
"l. c #CBA744",
"z. c #CEA840",
"x. c #C8A74D",
"c. c #CCA949",
"v. c #D3AD41",
"b. c #D3AF4C",
"n. c #DAB342",
"m. c #D6B14C",
"M. c #DBB54B",
"N. c #C2A450",
"B. c #CEAE56",
"V. c #D1AF50",
"C. c #D3B155",
"Z. c #D9B553",
"A. c #DFBA53",
"S. c #D3B35A",
"D. c #D8B75F",
"F. c #DDBB5B",
"G. c #E2B742",
"H. c #E5BA44",
"J. c #E9BE45",
"K. c #E2BA4C",
"L. c #E9BF4A",
"P. c #E3BE57",
"I. c #E1BD5C",
"U. c #D3B563",
"Y. c #D5B867",
"T. c #DBBB62",
"R. c #D3B86C",
"E. c #DDBE6A",
"W. c #D4BD7E",
"Q. c #E1BF62",
"!. c #EDC146",
"~. c #EBC14D",
"^. c #EAC252",
"/. c #E4C15F",
"(. c #ECC55B",
"). c #EFC85E",
"_. c #DFC271",
"`. c #E6C364",
"'. c #EBC762",
"]. c #EDC964",
"[. c #E2C269",
"{. c #EDCA6C",
"}. c #F1CD6A",
"|. c #E3C573",
" X c #E7C874",
".X c #ECCC74",
"XX c #E4C779",
"oX c #E6C97C",
"OX c #E9CB79",
"+X c #EFD17E",
"@X c #F1D27C",
"#X c #DCC583",
"$X c #E6CB81",
"%X c #EACF84",
"&X c #E6CD8A",
"*X c #EED284",
"=X c #ECD38C",
"-X c #F2D483",
";X c #F2D68A",
":X c #F4D98E",
">X c #EFD795",
",X c #F2DA95",
"<X c #F4DC9B",
"1X c #F5DFA1",
"2X c None",
/* pixels */
"2X2X2X2X2X2X2X2X2X2X2X2X2X2X2Xm m c 2X2X2X2X2X2X2X2X2X2X2X2X2X2X",
"2X2X2X2X2X2X2X2X2X2Xn h.#X=X=X:X;X-XOXE.d.b 2X2X2X2X2X2X2X2X2X2X",
"2X2X2X2X2X2X2X2XM _.<X1X<X,X;X XOX@X X}.}.'.m.Y 2X2X2X2X2X2X2X2X",
"2X2X2X2X2X2X2Xk.<X1X&X&X&XT.*XC.S.OXC.I.I.K.^.J.4.2X2X2X2X2X2X2X",
"2X2X2X2X2X2X#X1X<X>X_._.$XT. X X`.Q.S.P.v.v.G.J.s.2.a 2X2X2X2X2X",
"2X2X2X2X2X#X1X<X$X_.=XXX*X-X@XOX{.}.(.^.M.n.s.p.1.e.,.r 2X2X2X2X",
"2X2X2X2XW.1X>XT.*X_.;X:X*XE.{.F.F.A.K.^.J.s.i.=.O.+.#.X.2X2X2X2X",
"2X2X2Xf.<X>XY.U.XX:X*X[.[.C.C.V.b.z.v.6.6.y.e.+.+.*._ X.P 2X2X2X",
"2X2X2X=X>X=X%XXX;X;X.XS.C.I.(.^.~.H.p.<.<.,.o.@.+./ ` ~ ( r 2X2X",
"2X2Xj.<XoXD.XX;XXXT.S.I.'.(.~.~.J.a.u.w.#.X.;.o...~ Q Q R J 2X2X",
"2X2X%X,X*X|.OX*X{.B./.).^.~.H.7.u.u.-.T.3....._ E ~ W H D G > 2X",
"2XT :XXXB.|.@XT.C.F.).^.~.~.0.] =.L.E.x...X...! / G G D H S a 2X",
"2Xg.;XOXD.`.@X].V.(.M.| 4.a.7.{ <.J.}.T.E._ ^ E L S D A z l u 2X",
"2XR.-XOX.X{.T.b.M.~.' i I 9.r.$.1.u.b.U.N.! E R F A N N f u i 2X",
"2XE.@XT.}.].'.b.K.!.8.A _ w.>.;.;.q.:.~ E E P D G N u k g y f O ",
"2X[.{.`.).(.M.5.p.H.I *.y.` G Q ! ) q.q.E P U S S l y u p q d o ",
"2X`.F.Z.^.^.~.6.u.<.a [ ` k S G W P L o.X.[ J N S j t d t 9 a o ",
"2XZ.P.c.K.!.G.:.2.o.u a d A A V G P P ! E N i l N a 0 a q 9 q 2X",
"2Xc.K.l.H.s.9.1.>.W l F G ( L F D D L L N i u z l p 9 e 9 , e 2X",
"2X} L.8.7.u.t.q.X.o.~ o...^ E R G N N N Z i y z p < 9 < , > w 2X",
"2Xx s.6.:.e.$.o.&...X.) ~ E L F S S N l z a h j r < < 4 > > : 2X",
"2X2X6.t.=.@.@.X.X.) ~ ! E G D S N k u d t s v 9 = , 8 > o 8   2X",
"2X2XH e.*.%.o.X.E Q Q R G D S N k u y p h x q < , 3 # + % 3 2X2X",
"2X2X2Xo.o.[ ..) ~ G L D F D B N i j j v h 1 # * 4 7 2 o 4   2X2X",
"2X2X2Xa O._ W Q E G N N V l V l z f h 9 < > * > @ 2 ; & : 2X2X2X",
"2X2X2X2XV ( L I J D S N d y s t a < 1 > > > > 3 $ o $ 6 2X2X2X2X",
"2X2X2X2X2XB ! D Z V N i u y t 0 1 < , < # & 2 $ . $ 6 2X2X2X2X2X",
"2X2X2X2X2X2Xs F N j j s y t 0 9 1 < > 7 2 + O . : 5 2X2X2X2X2X2X",
"2X2X2X2X2X2X2X3 N l s a 9 q 1 < < < @ & % o % 6 - 2X2X2X2X2X2X2X",
"2X2X2X2X2X2X2X2X2X1 d d t < < > * + @ @ = 6 ; 2X2X2X2X2X2X2X2X2X",
"2X2X2X2X2X2X2X2X2X2X2X$ < e e e w 8 4 : O 2X2X2X2X2X2X2X2X2X2X2X",
"2X2X2X2X2X2X2X2X2X2X2X2X2X2X2X2X2X2X2X2X2X2X2X2X2X2X2X2X2X2X2X2X"
};
