/* XPM */
static char *_c2f8df73fe44678be1030f86f9e74a1[] = {
/* columns rows colors chars-per-pixel */
"16 16 185 2 ",
"   c #201A08",
".  c #2C2209",
"X  c #2F2508",
"o  c #2D240D",
"O  c #312608",
"+  c #34290A",
"@  c #34290C",
"#  c #342A0D",
"$  c #362B0C",
"%  c #3A2D0A",
"&  c #3A2E0C",
"*  c #382D0E",
"=  c #3D300C",
"-  c #3B3011",
";  c #40310B",
":  c #41320A",
">  c #45350A",
",  c #47370A",
"<  c #43340C",
"1  c #44350C",
"2  c #46360D",
"3  c #4A390A",
"4  c #4A390B",
"5  c #4D3B0B",
"6  c #4E3B0A",
"7  c #513E0C",
"8  c #503E0D",
"9  c #473811",
"0  c #52400C",
"q  c #55420D",
"w  c #5B460C",
"e  c #5F4A0E",
"r  c #594510",
"t  c #614B0F",
"y  c #654E0F",
"u  c #69510E",
"i  c #70560F",
"p  c #664F10",
"a  c #665011",
"s  c #675117",
"d  c #6A5211",
"f  c #695213",
"g  c #6F5715",
"h  c #6C5517",
"j  c #745910",
"k  c #765B10",
"l  c #755B13",
"z  c #775C13",
"x  c #715916",
"c  c #7B5F11",
"v  c #795E12",
"b  c #795E13",
"n  c #7A5F13",
"m  c #72653E",
"M  c #806314",
"N  c #826516",
"B  c #876912",
"V  c #876814",
"C  c #866815",
"Z  c #886810",
"A  c #886811",
"S  c #896A12",
"D  c #886915",
"F  c #8D6D15",
"G  c #8E6E14",
"H  c #8B6C18",
"J  c #937112",
"K  c #907014",
"L  c #927015",
"P  c #977515",
"I  c #977416",
"U  c #997514",
"Y  c #9A7614",
"T  c #9C7816",
"R  c #9F7B17",
"E  c #907018",
"W  c #977618",
"Q  c #9B7918",
"!  c #9C7918",
"~  c #A07B16",
"^  c #A27C15",
"/  c #A57F16",
"(  c #87723A",
")  c #8B7844",
"_  c #907D48",
"`  c #AE8512",
"'  c #AB8417",
"]  c #AC8416",
"[  c #AF8719",
"{  c #AC861B",
"}  c #AF881A",
"|  c #B08717",
" . c #BB8F17",
".. c #B68C19",
"X. c #B48B1C",
"o. c #BE9218",
"O. c #BE931A",
"+. c #BB911C",
"@. c #B18B25",
"#. c #B59233",
"$. c #C29519",
"%. c #C2951A",
"&. c #C1951C",
"*. c #C99B1F",
"=. c #CF9F1C",
"-. c #D6A41B",
";. c #D1A01C",
":. c #D3A31E",
">. c #C39822",
",. c #CE9F21",
"<. c #C99D26",
"1. c #C69D30",
"2. c #C19C35",
"3. c #CBA029",
"4. c #D3A420",
"5. c #D3A423",
"6. c #D9A926",
"7. c #DDAC27",
"8. c #DCAC28",
"9. c #DBAD2F",
"0. c #D5AB36",
"q. c #DBAE33",
"w. c #DAAF37",
"e. c #DDB034",
"r. c #DEB33D",
"t. c #E0AF29",
"y. c #E6B52E",
"u. c #E2B539",
"i. c #E4B739",
"p. c #8F8057",
"a. c #AD9960",
"s. c #AD9A66",
"d. c #BAA671",
"f. c #C7A443",
"g. c #DBB344",
"h. c #DEB646",
"j. c #DCB64D",
"k. c #D8B451",
"l. c #DBB550",
"z. c #DBBA5F",
"x. c #DEBB5D",
"c. c #DCBB5E",
"v. c #E0B541",
"b. c #E6BA40",
"n. c #EBBD40",
"m. c #E3BA49",
"M. c #E8BF4E",
"N. c #E2BB50",
"B. c #E3BD57",
"V. c #E8BF50",
"C. c #E3BE5A",
"Z. c #DDBD63",
"A. c #C6B37E",
"S. c #ECC24F",
"D. c #E8C25A",
"F. c #E9C35A",
"G. c #EEC85F",
"H. c #E2C063",
"J. c #E6C466",
"K. c #ECC762",
"L. c #E6C56B",
"P. c #E2C36D",
"I. c #EECB6C",
"U. c #E1C370",
"Y. c #E9C973",
"T. c #EBCB72",
"R. c #E7CA7A",
"E. c #E6C97C",
"W. c #E7CA7C",
"Q. c #E7CB7E",
"!. c #EACC78",
"~. c #EECF7A",
"^. c #E9CC7C",
"/. c #E8CC7E",
"(. c #F4D171",
"). c #ECD081",
"_. c #EED387",
"`. c #F6D680",
"'. c #F3D789",
"]. c #F6DA8D",
"[. c #EED796",
"{. c #F4D990",
"}. c #F4DB95",
"|. c #F1D998",
" X c None",
/* pixels */
" X X X X X Xp.s.a._  X X X X X X",
" X X X XA.}.].~.T.I.G.f. X X X X",
" X X X|.{.^.R.Y.L.B.g.i.y.a  X X",
" X X[.E.E.).P.c.l.h.i.7.4.:. X X",
" Xd.'.E.^.Z.C.S.i.9.5.;.O.X.L  X",
" X_.U.!.c.F.S.0.w.k.<. .' ! I  X",
"m `.L.H.N.#.1.8.e.Z.2.` I D N , ",
") (.K.j.v.@.>.+.,.,.} Q S j i 3 ",
"( D.M.r.3.C F F T ..' A b p t ; ",
" Xm.u.t.&.^ | ' J L N z a 0 8 X ",
" Xq.6.-.%.O.' U A j g h 5 2 <  X",
" XW :.%.] ~ U S v x s 3 9 & @  X",
" X X[ [ T S v j f r , ; @ -  X X",
" X X XH H v u w 5 < % @ @  X X X",
" X X X Xq d e 8 , = & o  X X X X",
" X X X X X X XO .    X X X X X X"
};
